<svg width="32" height="32" viewBox="0 0 32 32" fill="none" xmlns="http://www.w3.org/2000/svg">
  <rect width="32" height="32" rx="6" fill="#8B4513"/>
  <path d="M8 12C8 10.8954 8.89543 10 10 10H18C19.1046 10 20 10.8954 20 12V20C20 21.1046 19.1046 22 18 22H10C8.89543 22 8 21.1046 8 20V12Z" fill="#D2691E"/>
  <path d="M20 12H22C23.1046 12 24 12.8954 24 14V16C24 17.1046 23.1046 18 22 18H20V12Z" fill="#D2691E"/>
  <circle cx="16" cy="16" r="2" fill="#8B4513"/>
  <path d="M12 6C12 5.44772 12.4477 5 13 5H15C15.5523 5 16 5.44772 16 6V10H12V6Z" fill="#8B4513"/>
</svg>
